<svg xmlns="http://www.w3.org/2000/svg" viewBox="0 0 122.88 122.64"><defs><style>.cls-1{fill:#007efe;}.cls-2{fill:#007ffe;}</style></defs><g id="Layer_2" data-name="Layer 2"><g id="Layer_1-2" data-name="Layer 1"><path class="cls-1" d="M0,57c.36-1.82.64-3.66,1.1-5.46A40.57,40.57,0,0,1,19.45,26.38c4.69-3,9.47-5.78,14.22-8.66.16-.1.34-.18.6-.31L47.82,42.09,46,43.19c-2.62,1.6-5.3,3.12-7.86,4.82-3.86,2.58-5.78,6.22-5.23,10.9a9.85,9.85,0,0,0,1.25,3.33c4.25,7.81,8.69,15.51,12.77,23.41a9.39,9.39,0,0,0,12.36,4.24c2.38-1.11,4.58-2.59,6.85-3.93,1.41-.83,2.79-1.69,4.32-2.62C75,91.57,79.47,99.76,84,108c-.39.26-.74.5-1.1.72l-12.69,7.7a39.88,39.88,0,0,1-17.26,6,1.43,1.43,0,0,0-.41.17H46.32c-.85-.15-1.69-.34-2.54-.47C34,120.64,26.44,115.85,21.64,107,15.8,96.25,9.81,85.56,4,74.78a58.49,58.49,0,0,1-3.19-8A30.1,30.1,0,0,1,0,62.76Z"/><path class="cls-1" d="M122.88,65.88c-.35,1.74-.63,3.5-1.07,5.22a40,40,0,0,1-16.71,24c-5.29,3.57-10.84,6.75-16.41,10.2L75.08,80.54c1.93-1.17,3.84-2.32,5.74-3.49,1.59-1,3.25-1.9,4.74-3a10.33,10.33,0,0,0,3-13.89C84.37,52.55,80,45.06,76.1,37.35c-3-5.94-9.71-6.47-14-3.9Q57.84,36,53.59,38.59l-1.15.68c-4.52-8.23-9-16.41-13.55-24.67.33-.22.61-.43.91-.61,4.57-2.77,9.13-5.59,13.73-8.31A37.46,37.46,0,0,1,74.76,0c11.83.6,21,5.49,26.79,16.24,5.54,10.38,11.28,20.65,17,30.95a31.59,31.59,0,0,1,4.19,12.6c0,.1.11.2.17.3Z"/><path class="cls-2" d="M81.2,64.92c-.11,3.16-1.15,5.18-3.33,6.51Q69.44,76.59,61,81.69a6.23,6.23,0,0,1-9-2.35q-5.06-9-10-18.13a6.94,6.94,0,0,1,2.63-9.38Q53,46.75,61.37,41.7a6.29,6.29,0,0,1,9.06,2.37q5,9,9.88,18A13.14,13.14,0,0,1,81.2,64.92Z"/></g></g></svg>